<?xml version="1.0" standalone="no"?>
<!DOCTYPE svg PUBLIC "-//W3C//DTD SVG 20010904//EN"
 "http://www.w3.org/TR/2001/REC-SVG-20010904/DTD/svg10.dtd">
<svg version="1.0" xmlns="http://www.w3.org/2000/svg"
 width="160.000000pt" height="450.000000pt" viewBox="0 0 160.000000 450.000000"
 preserveAspectRatio="xMidYMid meet">

<g transform="translate(0.000000,450.000000) scale(0.100000,-0.100000)"
fill="#000000" stroke="none">
<path d="M0 3405 l0 -1095 175 0 175 0 0 -335 c0 -291 2 -335 15 -335 8 0 15
-9 15 -20 0 -11 -4 -20 -10 -20 -5 0 -10 5 -10 10 0 6 -7 10 -15 10 -13 0 -15
44 -15 335 l0 335 -75 0 c-43 0 -75 -4 -75 -10 0 -5 7 -10 15 -10 23 0 22
-575 -1 -608 -8 -12 -22 -22 -30 -22 -12 0 -14 48 -14 325 l0 325 -70 0 c-38
0 -70 -4 -70 -9 0 -5 4 -11 9 -13 5 -1 11 -144 13 -315 3 -228 7 -316 16 -325
7 -7 12 -15 12 -20 0 -13 -28 3 -37 20 -4 9 -10 154 -13 322 -3 168 -7 -202
-8 -822 l-2 -1128 275 0 c171 1 275 4 275 10 0 6 5 10 11 10 5 0 8 -4 4 -9 -3
-6 74 -10 196 -11 157 0 200 2 197 12 -6 16 21 45 46 50 13 2 20 -4 22 -19 2
-14 -1 -23 -9 -23 -8 0 -7 -4 3 -10 23 -15 277 -13 283 3 4 8 6 9 6 0 1 -8 41
-12 140 -12 l140 -1 3 27 c2 16 0 48 -4 72 -6 32 -4 47 4 52 9 6 9 14 1 31
-12 25 -35 129 -37 167 0 13 5 26 12 28 7 3 12 -5 12 -21 0 -13 4 -27 9 -31
11 -6 9 121 -2 131 -3 3 -1 17 4 31 7 19 6 30 -5 42 -11 12 -12 21 -5 34 7 11
13 220 16 537 5 470 4 520 -10 520 -14 0 -17 36 -19 320 -3 357 -1 347 -75
357 -34 4 -45 1 -76 -26 -34 -31 -36 -31 -42 -11 -14 45 -89 52 -134 14 -30
-25 -31 -25 -31 -5 0 19 -6 21 -70 21 -40 0 -70 -4 -70 -10 0 -5 7 -10 14 -10
13 0 15 -47 16 -313 0 -294 -1 -315 -18 -335 -23 -27 -35 -27 -62 -5 -19 17
-20 29 -20 345 l0 328 -70 0 c-40 0 -70 -4 -70 -10 0 -5 7 -10 16 -10 13 0 15
-33 12 -292 -2 -240 -6 -297 -18 -316 -8 -12 -22 -21 -30 -20 -13 3 -15 47
-14 326 l1 322 -74 0 c-42 0 -73 -4 -73 -10 0 -5 7 -10 15 -10 13 0 15 -42 15
-314 0 -199 4 -317 10 -321 6 -3 10 -13 10 -22 0 -14 -3 -14 -20 2 -19 17 -20
31 -20 327 l0 308 -60 0 -60 0 0 -295 c0 -162 4 -295 8 -295 23 0 40 95 42
233 0 5 12 7 28 5 l27 -3 -1 -105 c0 -133 -25 -185 -94 -205 -23 -6 -22 -4 8
20 18 15 40 41 49 58 19 37 32 217 16 217 -12 0 -20 -48 -22 -129 -1 -30 -9
-67 -17 -83 -16 -31 -48 -38 -58 -12 -3 9 -6 150 -6 315 l0 299 55 0 c30 0 55
5 55 10 0 6 -25 10 -55 10 l-55 0 0 136 c0 130 -11 170 -23 83 -7 -56 -61
-162 -97 -193 -35 -29 -38 -46 -10 -46 20 0 20 -7 20 -304 0 -288 1 -305 20
-329 23 -29 25 -37 7 -37 -7 0 -20 13 -30 29 -15 26 -17 63 -17 325 0 286 -1
296 -19 296 -11 0 -23 9 -26 21 -5 16 3 29 34 58 44 41 90 130 98 192 6 43 25
64 48 55 12 -4 15 -29 15 -136 l0 -130 225 0 225 0 2 -333 3 -332 25 0 25 0 2
295 c2 270 1 296 -16 315 -37 42 -24 50 89 54 200 7 208 7 226 -11 16 -15 19
-15 45 4 36 27 111 21 143 -11 20 -21 21 -32 26 -339 3 -174 7 328 8 1116 l2
1432 -800 0 -800 0 0 -1095z m1272 -1469 c0 -257 -2 -308 -15 -320 -13 -13
-17 -13 -31 3 -15 17 -17 50 -14 309 3 270 4 291 22 311 13 14 23 18 29 12 6
-6 10 -134 9 -315z m178 8 c0 -267 -2 -318 -15 -330 -13 -14 -17 -14 -30 0
-13 12 -15 59 -15 296 0 293 7 350 44 350 14 0 16 -37 16 -316z m-690 -289
c-7 -8 -17 -15 -23 -15 -6 0 -2 7 9 15 25 19 30 19 14 0z m-550 -35 c0 -11 -7
-20 -15 -20 -18 0 -19 12 -3 28 16 16 18 15 18 -8z m671 -13 c-16 -16 -26 0
-10 19 9 11 15 12 17 4 2 -6 -1 -17 -7 -23z m-334 -23 c-3 -3 -12 -4 -19 -1
-8 3 -5 6 6 6 11 1 17 -2 13 -5z m-60 -50 c-3 -3 -12 -4 -19 -1 -8 3 -5 6 6 6
11 1 17 -2 13 -5z m608 -34 c-3 -5 -11 -10 -16 -10 -6 0 -7 5 -4 10 3 6 11 10
16 10 6 0 7 -4 4 -10z m175 -20 c0 -5 -5 -10 -11 -10 -5 0 -7 5 -4 10 3 6 8
10 11 10 2 0 4 -4 4 -10z m30 -25 c-14 -17 -30 -20 -30 -6 0 5 8 12 18 14 9 3
19 5 21 6 2 0 -2 -6 -9 -14z m121 -76 c-9 -23 -10 -22 -10 11 -1 23 2 31 9 24
7 -7 7 -19 1 -35z m-425 5 c-3 -9 -6 -18 -6 -20 0 -2 -9 -4 -19 -4 -11 0 -21
-5 -23 -12 -3 -9 -6 -9 -12 0 -4 8 2 16 18 22 14 5 26 14 26 20 0 5 5 10 11
10 6 0 8 -7 5 -16z m244 -25 c0 -15 -18 -19 -23 -6 -3 8 1 14 9 14 8 0 14 -4
14 -8z m147 -37 c-3 -48 -9 -65 -34 -92 -33 -36 -53 -64 -53 -73 0 -5 -13 -7
-29 -4 -19 4 -33 1 -41 -8 -8 -10 -9 -15 -2 -15 6 0 13 4 17 9 6 11 55 -31 55
-48 0 -6 3 -10 8 -9 25 5 83 -17 97 -38 9 -14 20 -22 25 -19 6 4 10 1 10 -5 0
-6 4 -9 9 -6 4 3 17 -1 27 -9 15 -12 15 -14 3 -9 -10 3 -20 1 -23 -4 -3 -5
-17 -7 -31 -4 -23 4 -30 13 -26 35 1 5 -6 7 -16 5 -10 -2 -17 -10 -15 -17 1
-7 -3 -11 -10 -9 -7 3 -13 17 -13 31 -1 32 -6 38 -39 41 -17 2 -32 -3 -40 -16
-10 -14 -15 -16 -19 -6 -4 10 -11 10 -36 -4 -20 -11 -31 -13 -31 -6 0 7 -9 2
-21 -11 -11 -12 -18 -28 -15 -36 3 -9 0 -12 -10 -8 -7 3 -14 13 -15 22 0 9 -6
0 -12 -19 -9 -24 -9 -37 -2 -42 6 -5 4 -8 -5 -8 -13 0 -13 -1 0 -10 12 -8 11
-10 -7 -10 -14 0 -23 -7 -25 -22 -3 -24 -34 -33 -42 -12 -3 8 5 23 17 35 20
19 20 20 2 13 -11 -4 -27 -13 -37 -21 -20 -18 -35 1 -18 22 10 12 9 15 -4 15
-12 0 -16 -9 -16 -34 0 -44 -9 -66 -25 -66 -8 0 -29 -8 -47 -19 -18 -10 -57
-21 -86 -24 -29 -4 -70 -16 -89 -28 -29 -18 -54 -23 -121 -26 -105 -3 -125 5
-87 35 31 25 51 28 58 10 3 -8 6 -6 6 5 1 19 21 24 21 5 0 -6 3 -8 8 -4 4 4 7
12 7 18 0 6 27 19 60 29 108 32 315 116 307 125 -4 4 2 2 12 -6 11 -8 17 -10
13 -3 -4 7 1 14 13 18 11 3 20 13 20 21 0 9 -5 12 -12 8 -7 -3 1 5 17 19 17
14 38 33 47 41 10 9 33 22 53 30 19 8 35 20 35 26 0 6 4 9 9 5 5 -3 19 8 30
24 12 17 30 32 40 36 10 3 26 23 36 45 24 54 44 70 57 47 10 -18 28 -14 28 6
0 7 -4 6 -11 -3 -8 -11 -9 -8 -5 15 5 22 4 26 -4 15 -8 -12 -10 -10 -10 11 0
29 7 39 26 39 10 0 13 -13 11 -48z m-553 -37 c-33 -26 -54 -36 -54 -26 0 10
62 50 69 44 3 -2 -4 -10 -15 -18z m-77 -41 c-3 -4 -14 -3 -24 0 -15 6 -15 8
-3 16 16 10 39 -4 27 -16z m-117 -4 c0 -14 -31 -28 -51 -23 -28 8 -23 21 9 26
15 2 30 5 35 6 4 0 7 -3 7 -9z m60 0 c0 -5 7 -7 15 -4 8 4 15 2 15 -3 0 -15
-23 -33 -42 -33 -16 0 -19 15 -9 48 2 7 21 1 21 -8z m410 -27 c0 -10 -32 -43
-42 -43 -15 0 -8 29 10 39 20 12 32 14 32 4z m-653 -209 c-2 -13 0 -24 4 -24
5 0 9 -5 9 -10 0 -6 -8 -5 -19 2 -24 14 -27 70 -4 61 9 -4 13 -15 10 -29z
m105 22 c8 -7 23 -16 35 -20 12 -4 27 -14 35 -23 8 -10 8 -14 1 -10 -7 4 -16
0 -21 -10 -9 -15 -14 -14 -53 12 -24 16 -38 30 -31 33 6 2 12 8 12 13 0 6 -4
8 -9 4 -5 -3 -12 -1 -16 5 -9 15 32 12 47 -4z m947 -72 c-9 -11 -8 -18 6 -33
11 -13 14 -27 10 -41 -4 -12 -6 -45 -5 -73 1 -29 1 -60 1 -69 0 -10 5 -20 10
-24 6 -4 6 -11 -2 -20 -10 -12 -9 -13 6 -7 15 5 17 3 10 -13 -4 -10 -10 -32
-13 -49 -2 -16 -9 -35 -14 -42 -5 -7 -7 -17 -3 -23 3 -5 2 -10 -4 -10 -5 0
-11 -8 -14 -17 -2 -10 -3 75 -3 190 1 114 -2 207 -6 207 -13 0 -22 -45 -19
-91 1 -26 -2 -50 -8 -53 -6 -4 -11 1 -12 11 -2 35 -17 -31 -19 -82 -1 -47 -18
-109 -19 -75 -1 13 -2 13 -11 0 -8 -12 -10 -10 -11 10 -1 19 -3 20 -6 7 -3
-13 -11 -17 -25 -14 -14 4 -22 0 -25 -12 -3 -13 -11 -17 -24 -14 -12 3 -19 0
-19 -8 0 -10 -3 -10 -12 -1 -9 9 -15 9 -26 0 -10 -9 -16 -8 -23 3 -5 8 -9 10
-9 4 0 -5 -5 -2 -11 7 -5 10 -16 15 -25 11 -14 -5 -43 21 -44 40 0 12 38 8 44
-5 5 -10 7 -10 12 0 3 6 17 12 30 12 13 0 24 5 24 10 0 6 9 10 20 10 14 0 20
-7 20 -24 0 -22 4 -20 48 23 27 25 48 48 46 50 -2 2 3 16 12 32 8 16 11 29 7
29 -4 0 -2 5 5 12 15 15 16 31 0 22 -8 -5 -9 -2 -5 10 4 10 7 34 7 54 1 33 2
35 14 19 12 -16 14 -15 26 14 8 18 16 26 20 19 14 -22 40 2 42 39 l1 36 4 -33
c3 -18 -1 -40 -8 -48z m-824 28 c-3 -3 -16 5 -28 17 l-22 23 28 -17 c15 -10
25 -20 22 -23z m-265 -40 c0 -20 -28 -26 -45 -9 -17 17 -21 42 -5 32 6 -3 10
-1 10 4 0 7 7 7 20 -1 11 -7 20 -19 20 -26z m87 2 c-9 -9 -28 6 -21 18 4 6 10
6 17 -1 6 -6 8 -13 4 -17z m638 16 c3 -5 -1 -10 -10 -10 -9 0 -13 5 -10 10 3
6 8 10 10 10 2 0 7 -4 10 -10z m-852 -147 c-7 -2 -19 -2 -25 0 -7 3 -2 5 12 5
14 0 19 -2 13 -5z m52 -23 c4 -6 10 -8 15 -5 5 3 11 1 15 -5 10 -15 28 -12 22
4 -4 10 0 14 14 13 23 -2 23 -2 3 -32 -14 -21 -19 -22 -37 -12 -32 18 -62 47
-49 47 6 0 14 -5 17 -10z m131 -19 c-4 -6 -15 -10 -24 -10 -15 1 -14 2 1 6 12
3 16 10 12 21 -5 13 -3 14 6 5 6 -6 8 -16 5 -22z m519 -11 c3 -5 24 -10 45
-10 36 0 70 -19 70 -40 0 -10 -65 -3 -90 10 -26 14 -140 15 -170 3 -14 -6 -35
-21 -48 -33 -12 -12 -37 -28 -55 -36 -43 -19 -69 -36 -83 -53 -9 -12 -12 -11
-17 3 -4 10 -1 23 6 30 23 24 221 116 267 125 63 12 68 12 75 1z m472 -82 c-3
-7 -5 -2 -5 12 0 14 2 19 5 13 2 -7 2 -19 0 -25z m-467 18 c0 -9 -30 -14 -35
-6 -4 6 3 10 14 10 12 0 21 -2 21 -4z m-145 -16 c-3 -5 -16 -15 -28 -21 -21
-10 -21 -9 2 10 25 23 36 27 26 11z m71 -5 c-11 -8 -25 -15 -30 -15 -6 1 0 7
14 15 32 19 40 18 16 0z m-526 -55 c0 -5 -7 -10 -15 -10 -8 0 -15 5 -15 10 0
6 7 10 15 10 8 0 15 -4 15 -10z m670 0 c0 -5 -5 -10 -11 -10 -5 0 -7 5 -4 10
3 6 8 10 11 10 2 0 4 -4 4 -10z m90 -6 l25 -15 -25 5 c-14 3 -33 6 -42 6 -10
0 -18 5 -18 10 0 15 31 12 60 -6z m-531 -15 c-22 -14 -33 -10 -19 6 7 8 17 12
22 9 6 -4 5 -10 -3 -15z m368 6 c0 -8 -4 -15 -9 -15 -4 0 -8 7 -8 15 0 8 4 15
8 15 5 0 9 -7 9 -15z m-182 -15 c-10 -11 -20 -18 -23 -15 -7 6 18 35 31 35 5
0 2 -9 -8 -20z m-235 -30 c0 -5 -5 -10 -11 -10 -5 0 -7 5 -4 10 3 6 8 10 11
10 2 0 4 -4 4 -10z m310 0 c0 -5 -17 -10 -37 -9 -31 0 -34 2 -18 9 28 12 55
12 55 0z m259 4 c57 -12 32 -19 -72 -20 l-102 -2 65 13 c36 7 68 13 71 14 4 0
21 -2 38 -5z m375 -99 c3 -40 2 -64 -3 -57 -7 11 -9 11 -14 -2 -4 -10 -1 -16
8 -16 8 0 15 -4 15 -9 0 -5 3 -17 7 -27 4 -12 3 -15 -5 -10 -8 5 -12 -1 -12
-18 0 -16 6 -26 14 -26 15 0 34 -76 22 -87 -3 -4 -6 5 -7 18 0 13 -5 33 -10
44 -7 15 -8 12 -4 -15 3 -19 8 -47 11 -63 5 -22 4 -26 -10 -21 -11 4 -16 1
-16 -13 0 -33 -13 -35 -27 -6 -7 16 -11 21 -9 12 2 -9 -7 -39 -21 -65 l-25
-49 7 62 c4 38 3 69 -4 82 -9 17 -8 24 9 41 21 21 27 35 10 25 -5 -3 -10 3
-10 13 0 13 -6 19 -17 18 -24 -2 -34 -18 -21 -34 8 -9 8 -16 0 -24 -9 -9 -12
-7 -12 7 0 17 -2 18 -11 5 -8 -12 -12 -12 -16 -2 -4 10 -8 10 -21 0 -13 -11
-14 -11 -10 2 3 8 -2 20 -11 27 -22 16 -23 65 -1 53 10 -6 21 -3 31 6 13 12
20 12 41 2 13 -8 23 -19 20 -26 -2 -6 1 -12 7 -12 6 0 11 5 11 10 0 6 7 10 15
10 8 0 15 -9 15 -20 0 -11 3 -20 8 -20 4 0 6 26 5 58 -4 72 5 144 18 137 5 -4
9 10 9 31 0 58 8 36 14 -41z m-964 55 c0 -5 -4 -10 -10 -10 -5 0 -10 5 -10 10
0 6 5 10 10 10 6 0 10 -4 10 -10z m987 -10 c-3 -10 2 -25 10 -31 11 -10 11
-14 1 -20 -9 -6 -9 -9 -1 -9 6 0 11 -9 10 -20 -2 -25 -27 -27 -28 -2 0 9 -2
31 -5 47 -4 32 1 55 12 55 3 0 4 -9 1 -20z m-369 -17 c-5 -6 -16 -9 -24 -6
-22 8 -17 18 10 18 18 0 22 -3 14 -12z m-433 -23 c-3 -5 -12 -10 -18 -10 -7 0
-6 4 3 10 19 12 23 12 15 0z m147 -50 c16 0 37 -26 44 -54 7 -29 19 -34 28
-10 5 12 18 15 60 12 30 -1 54 -1 53 2 -4 12 40 45 56 42 17 -4 24 -22 8 -22
-5 0 -11 -10 -15 -23 -6 -24 -60 -62 -75 -52 -5 3 -20 0 -33 -5 -36 -17 -118
20 -118 53 0 13 -7 32 -15 43 -8 10 -14 24 -14 29 0 6 3 4 6 -2 2 -7 9 -13 15
-13z m268 16 c0 -3 -4 -8 -10 -11 -5 -3 -10 -1 -10 4 0 6 5 11 10 11 6 0 10
-2 10 -4z m50 0 c0 -2 -9 -6 -20 -9 -11 -3 -18 -1 -14 4 5 9 34 13 34 5z
m-348 -33 c30 -36 32 -46 7 -38 -27 9 -49 29 -49 44 0 17 25 13 42 -6z m705
-9 c-3 -3 -12 -4 -19 -1 -8 3 -5 6 6 6 11 1 17 -2 13 -5z m-607 -125 c51 -15
119 -4 161 26 44 33 49 31 14 -5 -54 -56 -161 -70 -207 -27 -7 6 -35 23 -62
37 -27 13 -51 32 -54 42 -2 10 -8 18 -13 18 -5 0 -9 4 -9 10 0 5 30 -13 66
-40 37 -28 84 -55 104 -61z m225 95 c-9 -9 -19 -13 -23 -10 -3 4 0 11 8 16 24
15 33 11 15 -6z m-745 -44 c13 -11 30 -20 39 -21 9 0 11 -3 4 -5 -6 -3 -30 4
-52 14 -23 11 -43 16 -47 11 -3 -5 -10 -9 -16 -9 -7 0 -6 6 2 15 17 21 43 19
70 -5z m-90 -14 c0 -3 -4 -8 -10 -11 -5 -3 -10 -1 -10 4 0 6 5 11 10 11 6 0
10 -2 10 -4z m453 -51 c15 -13 27 -27 27 -30 0 -3 -19 -5 -42 -5 -24 0 -60 -4
-81 -9 -24 -6 -39 -5 -44 2 -4 6 -10 4 -18 -6 -10 -14 -12 -14 -23 3 -9 15 -9
21 1 27 9 6 118 37 147 42 3 0 17 -11 33 -24z m367 -9 c0 -2 -7 -6 -15 -10 -8
-3 -15 -1 -15 4 0 6 7 10 15 10 8 0 15 -2 15 -4z m-580 -22 c0 -2 -7 -4 -15
-4 -8 0 -15 4 -15 10 0 5 7 7 15 4 8 -4 15 -8 15 -10z m385 -24 c3 -5 2 -10
-4 -10 -5 0 -13 5 -16 10 -3 6 -2 10 4 10 5 0 13 -4 16 -10z m95 0 c-8 -5 -22
-9 -30 -9 -10 0 -8 3 5 9 27 12 43 12 25 0z m-210 -19 c0 -5 -7 -11 -15 -15
-15 -5 -20 5 -8 17 9 10 23 9 23 -2z m-110 -5 c0 -2 -16 -16 -35 -30 -22 -17
-35 -22 -35 -14 0 7 12 21 28 30 26 17 42 22 42 14z m-290 -15 c0 -5 11 -12
25 -15 26 -7 35 -26 13 -26 -7 0 -32 9 -56 20 -28 13 -53 17 -74 13 -22 -4
-29 -3 -24 5 8 14 116 16 116 3z m863 2 c-7 -2 -19 -2 -25 0 -7 3 -2 5 12 5
14 0 19 -2 13 -5z m-403 -33 c-8 -6 -24 -9 -35 -9 -15 0 -13 4 10 14 32 14 49
10 25 -5z m654 -25 c3 -8 1 -15 -4 -15 -6 0 -10 7 -10 15 0 8 2 15 4 15 2 0 6
-7 10 -15z m-241 -15 c-3 -11 -9 -20 -13 -20 -5 0 -6 9 -3 20 3 11 9 20 13 20
5 0 6 -9 3 -20z m-865 -8 c12 -1 22 -9 22 -17 0 -18 -5 -18 -52 -2 -48 17 -55
25 -21 22 16 -1 38 -3 51 -3z m57 -22 c-3 -5 -10 -10 -16 -10 -5 0 -9 5 -9 10
0 6 7 10 16 10 8 0 12 -4 9 -10z"/>
<path d="M1236 2198 c-10 -40 -7 -558 4 -558 6 0 10 103 10 290 0 160 -2 290
-4 290 -2 0 -6 -10 -10 -22z"/>
<path d="M1416 2198 c-10 -40 -7 -558 4 -558 6 0 10 103 10 290 0 160 -2 290
-4 290 -2 0 -6 -10 -10 -22z"/>
<path d="M1415 800 c-4 -12 -5 -24 -2 -27 3 -2 8 5 12 17 4 12 5 24 2 27 -3 2
-8 -5 -12 -17z"/>
<path d="M1387 323 c-4 -3 -7 -11 -7 -17 0 -6 5 -5 12 2 6 6 9 14 7 17 -3 3
-9 2 -12 -2z"/>
<path d="M1040 352 c0 -6 -8 -13 -17 -15 -16 -4 -16 -5 -1 -6 18 -1 34 16 24
26 -3 4 -6 1 -6 -5z"/>
<path d="M170 1958 c0 -193 4 -288 10 -278 13 21 13 570 0 570 -6 0 -10 -104
-10 -292z"/>
<path d="M845 1960 c0 -192 3 -286 10 -279 6 6 11 121 13 289 3 226 1 280 -10
280 -10 0 -13 -58 -13 -290z"/>
</g>
</svg>
